<?xml version="1.0" encoding="UTF-8"?>
<svg id="Icon" xmlns="http://www.w3.org/2000/svg" viewBox="0 0 512 512" width="30" height="30">
    <path fill="#00f"
        d="m256,64c-69.37,0-125.8,56.43-125.8,125.8,0,1.44.04,2.95.12,4.62.46,12.87,2.86,25.46,7.1,37.44,24.76,81.02,105.75,183.3,109.19,187.62,2.28,2.86,5.73,4.52,9.39,4.52s7.11-1.67,9.39-4.52c3.44-4.32,84.44-106.59,109.2-187.62,4.25-11.99,6.64-24.57,7.1-37.41.08-1.51.12-3.07.12-4.64,0-69.37-56.44-125.8-125.81-125.8Z" />
    <path fill="#f0f"
        d="m255.99,277.81c-48.59,0-87.99-39.4-87.99-88.01s39.4-87.99,87.99-87.99,88.01,39.41,88.01,87.99-39.39,88.01-88.01,88.01Z" />
</svg>
