<svg width="260" height="196" viewBox="0 0 260 196" fill="none" xmlns="http://www.w3.org/2000/svg">
<g clip-path="url(#clip0_5117_2345)">
<path opacity="0.2" d="M130 168C91.3401 168 60 136.66 60 98C60 59.3401 91.3401 28 130 28C168.66 28 200 59.3401 200 98C200 136.66 168.66 168 130 168Z" fill="#00D7A0"/>
<path d="M8 168V160H0L0 168H8Z" fill="#00C1B6"/>
<path d="M28 168V160H36V168H28Z" fill="#00C1B6"/>
<path d="M64 168V160H56V168H64Z" fill="#00C1B6"/>
<path d="M36 196V188H28V196H36Z" fill="#00C1B6"/>
<path d="M8 140V132H0L0 140H8Z" fill="#00C1B6"/>
<path d="M36 140V132H28V140H36Z" fill="#00C1B6"/>
<path d="M224 8L232 8L232 0L224 -3.49691e-07L224 8Z" fill="#00C1B6"/>
<path d="M224 36L232 36L232 28L224 28L224 36Z" fill="#00C1B6"/>
<path d="M224 64L232 64L232 56L224 56L224 64Z" fill="#00C1B6"/>
<path d="M196 36L204 36L204 28L196 28L196 36Z" fill="#00C1B6"/>
<path d="M252 8L260 8L260 0L252 -3.49691e-07L252 8Z" fill="#00C1B6"/>
<path d="M252 36L260 36L260 28L252 28L252 36Z" fill="#00C1B6"/>
<path d="M133.354 102.031H104.484V110.002H139.842L146.352 118H104.514V126.054H152.907L165.715 141.789H155.61L92.6484 139.987L95.7148 55.7891L133.354 102.031Z" fill="#00D7A0"/>
<path d="M98 58.6406V138.033H162V137.215L169.183 146.033H90V50H90.9619L98 58.6406ZM159 65L170 78V135.953L162 126.131V86H138V58H106.506L99.9893 50H146L159 65ZM146 78H159.52L152.893 70.168L146 62.2148V78Z" fill="#00C1B6"/>
<path d="M98 58.6094V138.002H162V137.184L169.183 146.002H90V49.9688H90.9619L98 58.6094Z" fill="#00D7A0"/>
</g>
<defs>
<clipPath id="clip0_5117_2345">
<rect width="260" height="196" fill="white"/>
</clipPath>
</defs>
</svg>
