<svg width="260" height="196" viewBox="0 0 260 196" fill="none" xmlns="http://www.w3.org/2000/svg">
<g clip-path="url(#clip0_5117_2343)">
<path d="M8 168V160H0L0 168H8Z" fill="#00C1B6"/>
<path d="M28 168V160H36V168H28Z" fill="#00C1B6"/>
<path d="M64 168V160H56V168H64Z" fill="#00C1B6"/>
<path d="M36 196V188H28V196H36Z" fill="#00C1B6"/>
<path d="M8 140V132H0L0 140H8Z" fill="#00C1B6"/>
<path d="M36 140V132H28V140H36Z" fill="#00C1B6"/>
<path d="M224 8L232 8L232 0L224 -3.49691e-07L224 8Z" fill="#00C1B6"/>
<path d="M224 36L232 36L232 28L224 28L224 36Z" fill="#00C1B6"/>
<path d="M224 64L232 64L232 56L224 56L224 64Z" fill="#00C1B6"/>
<path d="M196 36L204 36L204 28L196 28L196 36Z" fill="#00C1B6"/>
<path d="M252 8L260 8L260 0L252 -3.49691e-07L252 8Z" fill="#00C1B6"/>
<path d="M252 36L260 36L260 28L252 28L252 36Z" fill="#00C1B6"/>
<circle opacity="0.1" cx="130.266" cy="98.0156" r="66" transform="rotate(90 130.266 98.0156)" fill="#00D7A0"/>
<path opacity="0.3" d="M168.424 48.3658V36.2891H91.9766V48.369C91.9766 65.3807 101.838 79.9484 115.822 85.9789C120.397 87.9517 123.382 92.6837 123.382 97.9246C123.382 103.169 120.397 107.898 115.822 109.873C101.838 115.904 91.9766 130.472 91.9766 147.483V159.563H168.424V147.483C168.424 130.472 158.562 115.904 144.578 109.873C140.003 107.901 137.019 103.169 137.019 97.9277C137.019 92.6838 140.003 87.9548 144.578 85.9789C158.562 79.9484 168.424 65.3807 168.424 48.369V48.3658Z" fill="#00D7A0"/>
<path d="M160.445 64.0938C156.703 71.4282 150.518 77.3457 142.691 80.6211C136.791 83.091 132.751 88.5603 131.931 94.9365V99.75C131.953 99.8918 131.969 100.034 131.99 100.176H131.931V136.14L162.198 159.358C162.455 159.62 133 159.469 129.396 159.358C125.793 159.469 96.7009 159.62 96.9548 159.358L127.221 136.14V100.179H127.163C127.184 100.037 127.203 99.8917 127.221 99.75V94.9395C126.399 88.5601 122.361 83.0909 116.462 80.6211C108.638 77.3459 102.454 71.4273 98.7106 64.0938H160.445Z" fill="#00D7A0"/>
<path d="M176 28H84V36.4848H176V28Z" fill="#009999"/>
<path d="M176 159.516H84V168H176V159.516Z" fill="#009999"/>
</g>
<defs>
<clipPath id="clip0_5117_2343">
<rect width="260" height="196" fill="white"/>
</clipPath>
</defs>
</svg>
