<svg width="260" height="196" viewBox="0 0 260 196" fill="none" xmlns="http://www.w3.org/2000/svg">
<g clip-path="url(#clip0_5117_2347)">
<circle opacity="0.2" cx="130" cy="98" r="66" transform="rotate(90 130 98)" fill="#00D7A0"/>
<path d="M8 168V160H0L0 168H8Z" fill="#00C1B6"/>
<path d="M28 168V160H36V168H28Z" fill="#00C1B6"/>
<path d="M64 168V160H56V168H64Z" fill="#00C1B6"/>
<path d="M36 196V188H28V196H36Z" fill="#00C1B6"/>
<path d="M8 140V132H0L0 140H8Z" fill="#00C1B6"/>
<path d="M36 140V132H28V140H36Z" fill="#00C1B6"/>
<path d="M224 8L232 8L232 0L224 -3.49691e-07L224 8Z" fill="#00C1B6"/>
<path d="M224 36L232 36L232 28L224 28L224 36Z" fill="#00C1B6"/>
<path d="M224 64L232 64L232 56L224 56L224 64Z" fill="#00C1B6"/>
<path d="M196 36L204 36L204 28L196 28L196 36Z" fill="#00C1B6"/>
<path d="M252 8L260 8L260 0L252 -3.49691e-07L252 8Z" fill="#00C1B6"/>
<path d="M252 36L260 36L260 28L252 28L252 36Z" fill="#00C1B6"/>
<path d="M168.311 144H92.3125V84H168.311V144ZM129.996 100C126.683 100 123.996 102.686 123.996 106V128H135.996V106C135.996 102.686 133.31 100 129.996 100Z" fill="#00D7A0"/>
</g>
<path d="M158.285 83.9287H150.285V72.0684H150.234C150.234 61.0352 141.29 52.0904 130.257 52.0898C119.223 52.0898 110.278 61.0349 110.277 72.0684H110.293V83.9287H102.293V72.0684H102.227C102.227 56.5887 114.777 44.0391 130.257 44.0391L130.979 44.0488C146.125 44.4327 158.285 56.8306 158.285 72.0684V83.9287Z" fill="#00C1B6"/>
<defs>
<clipPath id="clip0_5117_2347">
<rect width="260" height="196" fill="white"/>
</clipPath>
</defs>
</svg>
