<svg width="260" height="196" viewBox="0 0 260 196" fill="none" xmlns="http://www.w3.org/2000/svg">
<g clip-path="url(#clip0_5117_2348)">
<circle opacity="0.2" cx="130" cy="98" r="66" transform="rotate(90 130 98)" fill="#00D7A0"/>
<path d="M149.842 112.11L144.173 117.755L110.159 83.8869L115.828 78.2422L149.842 112.11Z" fill="#00C1B6"/>
<path d="M115.83 117.759L110.161 112.114L144.175 78.246L149.844 83.8906L115.83 117.759Z" fill="#00C1B6"/>
<path d="M8 168V160H0L0 168H8Z" fill="#00C1B6"/>
<path d="M28 168V160H36V168H28Z" fill="#00C1B6"/>
<path d="M64 168V160H56V168H64Z" fill="#00C1B6"/>
<path d="M36 196V188H28V196H36Z" fill="#00C1B6"/>
<path d="M8 140V132H0L0 140H8Z" fill="#00C1B6"/>
<path d="M36 140V132H28V140H36Z" fill="#00C1B6"/>
<path d="M224 8L232 8L232 0L224 -3.49691e-07L224 8Z" fill="#00C1B6"/>
<path d="M224 36L232 36L232 28L224 28L224 36Z" fill="#00C1B6"/>
<path d="M224 64L232 64L232 56L224 56L224 64Z" fill="#00C1B6"/>
<path d="M196 36L204 36L204 28L196 28L196 36Z" fill="#00C1B6"/>
<path d="M252 8L260 8L260 0L252 -3.49691e-07L252 8Z" fill="#00C1B6"/>
<path d="M252 36L260 36L260 28L252 28L252 36Z" fill="#00C1B6"/>
<path d="M130 50C156.51 50 178 71.4903 178 98C178 109.734 173.786 120.482 166.794 128.82L200.372 162.399L194.716 168.056L161.163 134.504C152.777 141.67 141.895 146 130 146C103.49 146 82 124.51 82 98C82 71.4903 103.49 50 130 50ZM130 60C109.013 60 92 77.0132 92 98C92 118.987 109.013 136 130 136C150.987 136 168 118.987 168 98C168 77.0132 150.987 60 130 60Z" fill="#00D7A0"/>
</g>
<defs>
<clipPath id="clip0_5117_2348">
<rect width="260" height="196" fill="white"/>
</clipPath>
</defs>
</svg>
