<svg width="260" height="197" viewBox="0 0 260 197" fill="none" xmlns="http://www.w3.org/2000/svg">
<path d="M49.0781 57.243L49.0781 52.0312L43.8663 52.0312L43.8663 57.243L49.0781 57.243Z" fill="#00D7A0"/>
<path d="M49.0781 34.6884L49.0781 29.4766L43.8663 29.4766L43.8663 34.6884L49.0781 34.6884Z" fill="#00D7A0"/>
<path d="M49.0781 79.0009L49.0781 73.7891L43.8663 73.7891L43.8663 79.0009L49.0781 79.0009Z" fill="#00D7A0"/>
<path d="M27.3984 57.243L27.3984 52.0312L22.1866 52.0312L22.1866 57.243L27.3984 57.243Z" fill="#00D7A0"/>
<path d="M4.94531 56.7139L4.94531 52.0469L0.274192 52.0469L0.274191 56.7139L4.94531 56.7139Z" fill="#00D7A0"/>
<path d="M5.21875 57.243L5.21875 52.0312L0.00695181 52.0312L0.00695135 57.243L5.21875 57.243Z" fill="#00D7A0"/>
<path d="M27.3594 34.6884L27.3594 29.4766L22.1476 29.4766L22.1476 34.6884L27.3594 34.6884Z" fill="#00D7A0"/>
<path d="M27.3672 78.993L27.3672 73.7812L22.1554 73.7812L22.1554 78.993L27.3672 78.993Z" fill="#00D7A0"/>
<path d="M49.8765 195.926C52.1724 195.926 54.4682 195.926 56.7641 195.926C56.7282 194.697 56.6923 193.468 56.6565 192.239C56.4049 183.62 56.1532 175.001 55.9016 166.381C55.1957 154.491 65.7241 142.957 78.2877 142.85C78.7144 142.838 79.1411 142.826 79.5679 142.813C80.7967 142.777 82.0256 142.741 83.2544 142.705C83.2544 141.845 83.2544 140.984 83.2544 140.123C82.0256 140.087 80.7967 140.051 79.5679 140.015C79.1411 140.003 78.7144 139.99 78.2877 139.978C64.2529 139.225 50.7982 151.674 50.739 166.381C50.4874 175.001 50.2358 183.62 49.9842 192.239C49.9483 193.468 49.9124 194.697 49.8765 195.926Z" fill="#00D7A0"/>
<path d="M105.728 55.3906C125.221 38.3647 154.383 40.0304 170.88 58.9165C187.377 77.8028 185.106 106.925 165.614 123.951C146.122 140.977 116.959 139.311 100.462 120.424C83.9657 101.538 86.2365 72.4164 105.728 55.3906Z" stroke="#B4A8FF" stroke-width="5.16566"/>
<rect x="102.453" y="85.3906" width="43.9879" height="8.22203" transform="rotate(-41.1364 102.453 85.3906)" fill="#D9D9D9"/>
<rect x="110.438" y="70.7734" width="12.333" height="5.75542" transform="rotate(-41.1364 110.438 70.7734)" fill="#805CFF"/>
<rect x="125.359" y="160.359" width="108.942" height="10.6886" transform="rotate(-41.1364 125.359 160.359)" fill="#B4A8FF"/>
<rect x="102.453" y="85.3906" width="43.9879" height="8.22203" transform="rotate(-41.1364 102.453 85.3906)" fill="#B4A8FF"/>
<path d="M76.586 147.013L125.697 151.058L110.553 133.719L85.9744 135.264L76.586 147.013Z" fill="#B4A8FF"/>
<path d="M103.656 128.007C94.6946 117.747 95.747 102.165 106.007 93.203L143.161 60.7497C153.421 51.788 169.003 52.8403 177.965 63.1002L203.387 92.2044L129.078 157.111L103.656 128.007Z" fill="#805CFF"/>
<path d="M53.4648 187.415C65.8169 187.415 76.993 187.945 85.0752 188.8C89.1191 189.228 92.3749 189.735 94.6113 190.294C95.7326 190.574 96.5739 190.862 97.126 191.147C97.4024 191.29 97.5841 191.422 97.6914 191.533C97.797 191.643 97.8027 191.704 97.8027 191.72C97.8027 191.736 97.7967 191.796 97.6914 191.905C97.5842 192.017 97.4027 192.148 97.126 192.291C96.5739 192.576 95.7328 192.865 94.6113 193.146C92.3749 193.705 89.1191 194.212 85.0752 194.64C76.993 195.494 65.8169 196.024 53.4648 196.024C41.1126 196.024 29.9358 195.494 21.8535 194.64C17.8099 194.212 14.5548 193.705 12.3184 193.146C11.1967 192.865 10.3549 192.576 9.80273 192.291C9.526 192.148 9.34451 192.017 9.2373 191.905C9.13202 191.796 9.12601 191.736 9.12598 191.72C9.12598 191.704 9.13167 191.643 9.2373 191.533C9.34456 191.422 9.52628 191.29 9.80273 191.147C10.3549 190.862 11.1968 190.574 12.3184 190.294C14.5548 189.735 17.8099 189.227 21.8535 188.8C29.9358 187.945 41.1125 187.415 53.4648 187.415Z" fill="#00D7A0" stroke="#00D7A0" stroke-width="0.860944"/>
<path d="M204.086 164.568V170.43H209.948V164.568H204.086Z" fill="#00D7A0"/>
<path d="M204.086 189.927V195.789H209.948V189.927H204.086Z" fill="#00D7A0"/>
<path d="M204.086 140.099V145.961H209.948V140.099H204.086Z" fill="#00D7A0"/>
<path d="M228.469 164.568V170.43H234.331V164.568H228.469Z" fill="#00D7A0"/>
<path d="M253.719 165.166V170.414H258.971V165.166H253.719Z" fill="#00D7A0"/>
<path d="M253.422 164.568V170.43H259.284V164.568H253.422Z" fill="#00D7A0"/>
<path d="M228.508 189.927V195.789H234.37V189.927H228.508Z" fill="#00D7A0"/>
<path d="M228.508 140.107V145.969H234.37V140.107H228.508Z" fill="#00D7A0"/>
</svg>
