<svg xmlns="http://www.w3.org/2000/svg" viewBox="0 0 512 512"><title>Blizzard (night)</title><path d="M 91.0 275.6 A 68.8 68.8 0 0 1 70.4 158.8 A 96.3 96.3 0 0 1 295.9 113.4 A 75.6 75.6 0 0 1 411.4 230.3 A 75.6 75.6 0 0 1 381.1 275.6 Z" fill="none" stroke="currentColor" stroke-width="20" stroke-linejoin="round"/><g><line x1="122.0" y1="360.0" x2="170.0" y2="360.0" stroke="currentColor" stroke-width="12" stroke-linecap="round"/><line x1="134.0" y1="339.2" x2="158.0" y2="380.8" stroke="currentColor" stroke-width="12" stroke-linecap="round"/><line x1="158.0" y1="339.2" x2="134.0" y2="380.8" stroke="currentColor" stroke-width="12" stroke-linecap="round"/><line x1="170.0" y1="360.0" x2="122.0" y2="360.0" stroke="currentColor" stroke-width="12" stroke-linecap="round"/><line x1="158.0" y1="380.8" x2="134.0" y2="339.2" stroke="currentColor" stroke-width="12" stroke-linecap="round"/><line x1="134.0" y1="380.8" x2="158.0" y2="339.2" stroke="currentColor" stroke-width="12" stroke-linecap="round"/></g><g><line x1="195.3" y1="382.0" x2="243.3" y2="382.0" stroke="currentColor" stroke-width="12" stroke-linecap="round"/><line x1="207.3" y1="361.2" x2="231.3" y2="402.8" stroke="currentColor" stroke-width="12" stroke-linecap="round"/><line x1="231.3" y1="361.2" x2="207.3" y2="402.8" stroke="currentColor" stroke-width="12" stroke-linecap="round"/><line x1="243.3" y1="382.0" x2="195.3" y2="382.0" stroke="currentColor" stroke-width="12" stroke-linecap="round"/><line x1="231.3" y1="402.8" x2="207.3" y2="361.2" stroke="currentColor" stroke-width="12" stroke-linecap="round"/><line x1="207.3" y1="402.8" x2="231.3" y2="361.2" stroke="currentColor" stroke-width="12" stroke-linecap="round"/></g><g><line x1="268.7" y1="360.0" x2="316.7" y2="360.0" stroke="currentColor" stroke-width="12" stroke-linecap="round"/><line x1="280.7" y1="339.2" x2="304.7" y2="380.8" stroke="currentColor" stroke-width="12" stroke-linecap="round"/><line x1="304.7" y1="339.2" x2="280.7" y2="380.8" stroke="currentColor" stroke-width="12" stroke-linecap="round"/><line x1="316.7" y1="360.0" x2="268.7" y2="360.0" stroke="currentColor" stroke-width="12" stroke-linecap="round"/><line x1="304.7" y1="380.8" x2="280.7" y2="339.2" stroke="currentColor" stroke-width="12" stroke-linecap="round"/><line x1="280.7" y1="380.8" x2="304.7" y2="339.2" stroke="currentColor" stroke-width="12" stroke-linecap="round"/></g><g><line x1="342.0" y1="382.0" x2="390.0" y2="382.0" stroke="currentColor" stroke-width="12" stroke-linecap="round"/><line x1="354.0" y1="361.2" x2="378.0" y2="402.8" stroke="currentColor" stroke-width="12" stroke-linecap="round"/><line x1="378.0" y1="361.2" x2="354.0" y2="402.8" stroke="currentColor" stroke-width="12" stroke-linecap="round"/><line x1="390.0" y1="382.0" x2="342.0" y2="382.0" stroke="currentColor" stroke-width="12" stroke-linecap="round"/><line x1="378.0" y1="402.8" x2="354.0" y2="361.2" stroke="currentColor" stroke-width="12" stroke-linecap="round"/><line x1="354.0" y1="402.8" x2="378.0" y2="361.2" stroke="currentColor" stroke-width="12" stroke-linecap="round"/></g><path d="M 146 414 h 150 a 28 28 0 1 0 -28 -28" fill="none" stroke="currentColor" stroke-width="22" stroke-linecap="round"/><path d="M 146 458 h 190 a 34 34 0 1 1 -34 34" fill="none" stroke="currentColor" stroke-width="22" stroke-linecap="round"/><path d="M 146 500 h 90" fill="none" stroke="currentColor" stroke-width="22" stroke-linecap="round"/></svg>
