<svg xmlns="http://www.w3.org/2000/svg" viewBox="0 0 512 512"><title>Flurries</title><path d="M 91.0 285.6 A 68.8 68.8 0 0 1 70.4 168.8 A 96.3 96.3 0 0 1 295.9 123.4 A 75.6 75.6 0 0 1 411.4 240.3 A 75.6 75.6 0 0 1 381.1 285.6 Z" fill="none" stroke="currentColor" stroke-width="20" stroke-linejoin="round"/><g><line x1="147.0" y1="380.0" x2="195.0" y2="380.0" stroke="currentColor" stroke-width="12" stroke-linecap="round"/><line x1="159.0" y1="359.2" x2="183.0" y2="400.8" stroke="currentColor" stroke-width="12" stroke-linecap="round"/><line x1="183.0" y1="359.2" x2="159.0" y2="400.8" stroke="currentColor" stroke-width="12" stroke-linecap="round"/><line x1="195.0" y1="380.0" x2="147.0" y2="380.0" stroke="currentColor" stroke-width="12" stroke-linecap="round"/><line x1="183.0" y1="400.8" x2="159.0" y2="359.2" stroke="currentColor" stroke-width="12" stroke-linecap="round"/><line x1="159.0" y1="400.8" x2="183.0" y2="359.2" stroke="currentColor" stroke-width="12" stroke-linecap="round"/></g><g><line x1="317.0" y1="402.0" x2="365.0" y2="402.0" stroke="currentColor" stroke-width="12" stroke-linecap="round"/><line x1="329.0" y1="381.2" x2="353.0" y2="422.8" stroke="currentColor" stroke-width="12" stroke-linecap="round"/><line x1="353.0" y1="381.2" x2="329.0" y2="422.8" stroke="currentColor" stroke-width="12" stroke-linecap="round"/><line x1="365.0" y1="402.0" x2="317.0" y2="402.0" stroke="currentColor" stroke-width="12" stroke-linecap="round"/><line x1="353.0" y1="422.8" x2="329.0" y2="381.2" stroke="currentColor" stroke-width="12" stroke-linecap="round"/><line x1="329.0" y1="422.8" x2="353.0" y2="381.2" stroke="currentColor" stroke-width="12" stroke-linecap="round"/></g></svg>
