<svg xmlns="http://www.w3.org/2000/svg" viewBox="0 0 512 512"><title>Freezing rain</title><path d="M 91.0 285.6 A 68.8 68.8 0 0 1 70.4 168.8 A 96.3 96.3 0 0 1 295.9 123.4 A 75.6 75.6 0 0 1 411.4 240.3 A 75.6 75.6 0 0 1 381.1 285.6 Z" fill="none" stroke="currentColor" stroke-width="20" stroke-linejoin="round"/><path d="M 171 349.2 C 193 375.6 193 393.2 171 399.8 C 149 393.2 149 375.6 171 349.2 Z"/><path d="M 256 371.2 C 278 397.6 278 415.2 256 421.8 C 234 415.2 234 397.6 256 371.2 Z"/><path d="M 341 349.2 C 363 375.6 363 393.2 341 399.8 C 319 393.2 319 375.6 341 349.2 Z"/><g><line x1="238.0" y1="450.0" x2="274.0" y2="450.0" stroke="currentColor" stroke-width="12" stroke-linecap="round"/><line x1="247.0" y1="434.4" x2="265.0" y2="465.6" stroke="currentColor" stroke-width="12" stroke-linecap="round"/><line x1="265.0" y1="434.4" x2="247.0" y2="465.6" stroke="currentColor" stroke-width="12" stroke-linecap="round"/><line x1="274.0" y1="450.0" x2="238.0" y2="450.0" stroke="currentColor" stroke-width="12" stroke-linecap="round"/><line x1="265.0" y1="465.6" x2="247.0" y2="434.4" stroke="currentColor" stroke-width="12" stroke-linecap="round"/><line x1="247.0" y1="465.6" x2="265.0" y2="434.4" stroke="currentColor" stroke-width="12" stroke-linecap="round"/></g></svg>
