<svg xmlns="http://www.w3.org/2000/svg" viewBox="0 0 512 512"><title>Mostly cloudy with sleet (night)</title><path d="M 184 140 a 64 64 0 1 1 -128 0 a 64 64 0 1 1 128 0 Z M 210.88 140 a 64 64 0 1 0 -128 0 a 64 64 0 1 0 128 0 Z" fill="currentColor" fill-rule="evenodd"/><path d="M 132.5 322.2 A 65.6 65.6 0 0 1 112.8 210.6 A 91.9 91.9 0 0 1 328.1 167.3 A 72.2 72.2 0 0 1 438.3 278.9 A 72.2 72.2 0 0 1 409.4 322.2 Z" fill="none" stroke="currentColor" stroke-width="20" stroke-linejoin="round"/><path d="M 280 384.8 C 298 406.4 298 420.8 280 426.2 C 262 420.8 262 406.4 280 384.8 Z"/><g><line x1="308.0" y1="422.0" x2="352.0" y2="422.0" stroke="currentColor" stroke-width="12" stroke-linecap="round"/><line x1="319.0" y1="402.9" x2="341.0" y2="441.1" stroke="currentColor" stroke-width="12" stroke-linecap="round"/><line x1="341.0" y1="402.9" x2="319.0" y2="441.1" stroke="currentColor" stroke-width="12" stroke-linecap="round"/><line x1="352.0" y1="422.0" x2="308.0" y2="422.0" stroke="currentColor" stroke-width="12" stroke-linecap="round"/><line x1="341.0" y1="441.1" x2="319.0" y2="402.9" stroke="currentColor" stroke-width="12" stroke-linecap="round"/><line x1="319.0" y1="441.1" x2="341.0" y2="402.9" stroke="currentColor" stroke-width="12" stroke-linecap="round"/></g><path d="M 380 384.8 C 398 406.4 398 420.8 380 426.2 C 362 420.8 362 406.4 380 384.8 Z"/></svg>
