<svg xmlns="http://www.w3.org/2000/svg" viewBox="0 0 512 512"><title>Mostly cloudy with snow, windy (night)</title><path d="M 184 140 a 64 64 0 1 1 -128 0 a 64 64 0 1 1 128 0 Z M 210.88 140 a 64 64 0 1 0 -128 0 a 64 64 0 1 0 128 0 Z" fill="currentColor" fill-rule="evenodd"/><path d="M 132.5 322.2 A 65.6 65.6 0 0 1 112.8 210.6 A 91.9 91.9 0 0 1 328.1 167.3 A 72.2 72.2 0 0 1 438.3 278.9 A 72.2 72.2 0 0 1 409.4 322.2 Z" fill="none" stroke="currentColor" stroke-width="20" stroke-linejoin="round"/><g><line x1="236.0" y1="410.0" x2="284.0" y2="410.0" stroke="currentColor" stroke-width="12" stroke-linecap="round"/><line x1="248.0" y1="389.2" x2="272.0" y2="430.8" stroke="currentColor" stroke-width="12" stroke-linecap="round"/><line x1="272.0" y1="389.2" x2="248.0" y2="430.8" stroke="currentColor" stroke-width="12" stroke-linecap="round"/><line x1="284.0" y1="410.0" x2="236.0" y2="410.0" stroke="currentColor" stroke-width="12" stroke-linecap="round"/><line x1="272.0" y1="430.8" x2="248.0" y2="389.2" stroke="currentColor" stroke-width="12" stroke-linecap="round"/><line x1="248.0" y1="430.8" x2="272.0" y2="389.2" stroke="currentColor" stroke-width="12" stroke-linecap="round"/></g><g><line x1="306.0" y1="432.0" x2="354.0" y2="432.0" stroke="currentColor" stroke-width="12" stroke-linecap="round"/><line x1="318.0" y1="411.2" x2="342.0" y2="452.8" stroke="currentColor" stroke-width="12" stroke-linecap="round"/><line x1="342.0" y1="411.2" x2="318.0" y2="452.8" stroke="currentColor" stroke-width="12" stroke-linecap="round"/><line x1="354.0" y1="432.0" x2="306.0" y2="432.0" stroke="currentColor" stroke-width="12" stroke-linecap="round"/><line x1="342.0" y1="452.8" x2="318.0" y2="411.2" stroke="currentColor" stroke-width="12" stroke-linecap="round"/><line x1="318.0" y1="452.8" x2="342.0" y2="411.2" stroke="currentColor" stroke-width="12" stroke-linecap="round"/></g><g><line x1="376.0" y1="410.0" x2="424.0" y2="410.0" stroke="currentColor" stroke-width="12" stroke-linecap="round"/><line x1="388.0" y1="389.2" x2="412.0" y2="430.8" stroke="currentColor" stroke-width="12" stroke-linecap="round"/><line x1="412.0" y1="389.2" x2="388.0" y2="430.8" stroke="currentColor" stroke-width="12" stroke-linecap="round"/><line x1="424.0" y1="410.0" x2="376.0" y2="410.0" stroke="currentColor" stroke-width="12" stroke-linecap="round"/><line x1="412.0" y1="430.8" x2="388.0" y2="389.2" stroke="currentColor" stroke-width="12" stroke-linecap="round"/><line x1="388.0" y1="430.8" x2="412.0" y2="389.2" stroke="currentColor" stroke-width="12" stroke-linecap="round"/></g><path d="M 146 419 h 150 a 28 28 0 1 0 -28 -28" fill="none" stroke="currentColor" stroke-width="22" stroke-linecap="round"/><path d="M 146 463 h 190 a 34 34 0 1 1 -34 34" fill="none" stroke="currentColor" stroke-width="22" stroke-linecap="round"/><path d="M 146 505 h 90" fill="none" stroke="currentColor" stroke-width="22" stroke-linecap="round"/></svg>
