<svg xmlns="http://www.w3.org/2000/svg" viewBox="0 0 512 512"><title>Mostly cloudy with rain, windy (night)</title><path d="M 184 140 a 64 64 0 1 1 -128 0 a 64 64 0 1 1 128 0 Z M 210.88 140 a 64 64 0 1 0 -128 0 a 64 64 0 1 0 128 0 Z" fill="currentColor" fill-rule="evenodd"/><path d="M 132.5 322.2 A 65.6 65.6 0 0 1 112.8 210.6 A 91.9 91.9 0 0 1 328.1 167.3 A 72.2 72.2 0 0 1 438.3 278.9 A 72.2 72.2 0 0 1 409.4 322.2 Z" fill="none" stroke="currentColor" stroke-width="20" stroke-linejoin="round"/><path d="M 260 379.2 C 282 405.6 282 423.2 260 429.8 C 238 423.2 238 405.6 260 379.2 Z"/><path d="M 330 401.2 C 352 427.6 352 445.2 330 451.8 C 308 445.2 308 427.6 330 401.2 Z"/><path d="M 400 379.2 C 422 405.6 422 423.2 400 429.8 C 378 423.2 378 405.6 400 379.2 Z"/><path d="M 146 419 h 150 a 28 28 0 1 0 -28 -28" fill="none" stroke="currentColor" stroke-width="22" stroke-linecap="round"/><path d="M 146 463 h 190 a 34 34 0 1 1 -34 34" fill="none" stroke="currentColor" stroke-width="22" stroke-linecap="round"/><path d="M 146 505 h 90" fill="none" stroke="currentColor" stroke-width="22" stroke-linecap="round"/></svg>
