<svg xmlns="http://www.w3.org/2000/svg" viewBox="0 0 512 512"><title>Mostly cloudy with snow</title><circle cx="120" cy="140" r="62" fill="none" stroke="currentColor" stroke-width="22"/><line x1="198.0" y1="140.0" x2="238.0" y2="140.0" stroke="currentColor" stroke-width="22" stroke-linecap="round" fill="none"/><line x1="175.2" y1="195.2" x2="203.4" y2="223.4" stroke="currentColor" stroke-width="22" stroke-linecap="round" fill="none"/><line x1="120.0" y1="218.0" x2="120.0" y2="258.0" stroke="currentColor" stroke-width="22" stroke-linecap="round" fill="none"/><line x1="64.8" y1="195.2" x2="36.6" y2="223.4" stroke="currentColor" stroke-width="22" stroke-linecap="round" fill="none"/><line x1="42.0" y1="140.0" x2="2.0" y2="140.0" stroke="currentColor" stroke-width="22" stroke-linecap="round" fill="none"/><line x1="64.8" y1="84.8" x2="36.6" y2="56.6" stroke="currentColor" stroke-width="22" stroke-linecap="round" fill="none"/><line x1="120.0" y1="62.0" x2="120.0" y2="22.0" stroke="currentColor" stroke-width="22" stroke-linecap="round" fill="none"/><line x1="175.2" y1="84.8" x2="203.4" y2="56.6" stroke="currentColor" stroke-width="22" stroke-linecap="round" fill="none"/><path d="M 132.5 322.2 A 65.6 65.6 0 0 1 112.8 210.6 A 91.9 91.9 0 0 1 328.1 167.3 A 72.2 72.2 0 0 1 438.3 278.9 A 72.2 72.2 0 0 1 409.4 322.2 Z" fill="none" stroke="currentColor" stroke-width="20" stroke-linejoin="round"/><g><line x1="236.0" y1="410.0" x2="284.0" y2="410.0" stroke="currentColor" stroke-width="12" stroke-linecap="round"/><line x1="248.0" y1="389.2" x2="272.0" y2="430.8" stroke="currentColor" stroke-width="12" stroke-linecap="round"/><line x1="272.0" y1="389.2" x2="248.0" y2="430.8" stroke="currentColor" stroke-width="12" stroke-linecap="round"/><line x1="284.0" y1="410.0" x2="236.0" y2="410.0" stroke="currentColor" stroke-width="12" stroke-linecap="round"/><line x1="272.0" y1="430.8" x2="248.0" y2="389.2" stroke="currentColor" stroke-width="12" stroke-linecap="round"/><line x1="248.0" y1="430.8" x2="272.0" y2="389.2" stroke="currentColor" stroke-width="12" stroke-linecap="round"/></g><g><line x1="306.0" y1="432.0" x2="354.0" y2="432.0" stroke="currentColor" stroke-width="12" stroke-linecap="round"/><line x1="318.0" y1="411.2" x2="342.0" y2="452.8" stroke="currentColor" stroke-width="12" stroke-linecap="round"/><line x1="342.0" y1="411.2" x2="318.0" y2="452.8" stroke="currentColor" stroke-width="12" stroke-linecap="round"/><line x1="354.0" y1="432.0" x2="306.0" y2="432.0" stroke="currentColor" stroke-width="12" stroke-linecap="round"/><line x1="342.0" y1="452.8" x2="318.0" y2="411.2" stroke="currentColor" stroke-width="12" stroke-linecap="round"/><line x1="318.0" y1="452.8" x2="342.0" y2="411.2" stroke="currentColor" stroke-width="12" stroke-linecap="round"/></g><g><line x1="376.0" y1="410.0" x2="424.0" y2="410.0" stroke="currentColor" stroke-width="12" stroke-linecap="round"/><line x1="388.0" y1="389.2" x2="412.0" y2="430.8" stroke="currentColor" stroke-width="12" stroke-linecap="round"/><line x1="412.0" y1="389.2" x2="388.0" y2="430.8" stroke="currentColor" stroke-width="12" stroke-linecap="round"/><line x1="424.0" y1="410.0" x2="376.0" y2="410.0" stroke="currentColor" stroke-width="12" stroke-linecap="round"/><line x1="412.0" y1="430.8" x2="388.0" y2="389.2" stroke="currentColor" stroke-width="12" stroke-linecap="round"/><line x1="388.0" y1="430.8" x2="412.0" y2="389.2" stroke="currentColor" stroke-width="12" stroke-linecap="round"/></g></svg>
