<svg xmlns="http://www.w3.org/2000/svg" viewBox="0 0 512 512"><title>Partly cloudy with rain, windy (night)</title><path d="M 234 150 a 84 84 0 1 1 -168 0 a 84 84 0 1 1 168 0 Z M 269.28 150 a 84 84 0 1 0 -168 0 a 84 84 0 1 0 168 0 Z" fill="currentColor" fill-rule="evenodd"/><path d="M 182.5 338.4 A 53.1 53.1 0 0 1 166.6 248.1 A 74.4 74.4 0 0 1 340.8 213.1 A 58.4 58.4 0 0 1 430.1 303.4 A 58.4 58.4 0 0 1 406.7 338.4 Z" fill="none" stroke="currentColor" stroke-width="20" stroke-linejoin="round"/><path d="M 260 379.2 C 282 405.6 282 423.2 260 429.8 C 238 423.2 238 405.6 260 379.2 Z"/><path d="M 330 401.2 C 352 427.6 352 445.2 330 451.8 C 308 445.2 308 427.6 330 401.2 Z"/><path d="M 400 379.2 C 422 405.6 422 423.2 400 429.8 C 378 423.2 378 405.6 400 379.2 Z"/><path d="M 146 419 h 150 a 28 28 0 1 0 -28 -28" fill="none" stroke="currentColor" stroke-width="22" stroke-linecap="round"/><path d="M 146 463 h 190 a 34 34 0 1 1 -34 34" fill="none" stroke="currentColor" stroke-width="22" stroke-linecap="round"/><path d="M 146 505 h 90" fill="none" stroke="currentColor" stroke-width="22" stroke-linecap="round"/></svg>
