<svg xmlns="http://www.w3.org/2000/svg" viewBox="0 0 512 512"><title>Partly cloudy with sleet, windy (night)</title><path d="M 234 150 a 84 84 0 1 1 -168 0 a 84 84 0 1 1 168 0 Z M 269.28 150 a 84 84 0 1 0 -168 0 a 84 84 0 1 0 168 0 Z" fill="currentColor" fill-rule="evenodd"/><path d="M 182.5 338.4 A 53.1 53.1 0 0 1 166.6 248.1 A 74.4 74.4 0 0 1 340.8 213.1 A 58.4 58.4 0 0 1 430.1 303.4 A 58.4 58.4 0 0 1 406.7 338.4 Z" fill="none" stroke="currentColor" stroke-width="20" stroke-linejoin="round"/><path d="M 280 384.8 C 298 406.4 298 420.8 280 426.2 C 262 420.8 262 406.4 280 384.8 Z"/><g><line x1="308.0" y1="422.0" x2="352.0" y2="422.0" stroke="currentColor" stroke-width="12" stroke-linecap="round"/><line x1="319.0" y1="402.9" x2="341.0" y2="441.1" stroke="currentColor" stroke-width="12" stroke-linecap="round"/><line x1="341.0" y1="402.9" x2="319.0" y2="441.1" stroke="currentColor" stroke-width="12" stroke-linecap="round"/><line x1="352.0" y1="422.0" x2="308.0" y2="422.0" stroke="currentColor" stroke-width="12" stroke-linecap="round"/><line x1="341.0" y1="441.1" x2="319.0" y2="402.9" stroke="currentColor" stroke-width="12" stroke-linecap="round"/><line x1="319.0" y1="441.1" x2="341.0" y2="402.9" stroke="currentColor" stroke-width="12" stroke-linecap="round"/></g><path d="M 380 384.8 C 398 406.4 398 420.8 380 426.2 C 362 420.8 362 406.4 380 384.8 Z"/><path d="M 146 419 h 150 a 28 28 0 1 0 -28 -28" fill="none" stroke="currentColor" stroke-width="22" stroke-linecap="round"/><path d="M 146 463 h 190 a 34 34 0 1 1 -34 34" fill="none" stroke="currentColor" stroke-width="22" stroke-linecap="round"/><path d="M 146 505 h 90" fill="none" stroke="currentColor" stroke-width="22" stroke-linecap="round"/></svg>
