<svg xmlns="http://www.w3.org/2000/svg" viewBox="0 0 512 512"><title>Partly cloudy, windy</title><circle cx="150" cy="150" r="78" fill="none" stroke="currentColor" stroke-width="22"/><line x1="244.0" y1="150.0" x2="284.0" y2="150.0" stroke="currentColor" stroke-width="22" stroke-linecap="round" fill="none"/><line x1="216.5" y1="216.5" x2="244.8" y2="244.8" stroke="currentColor" stroke-width="22" stroke-linecap="round" fill="none"/><line x1="150.0" y1="244.0" x2="150.0" y2="284.0" stroke="currentColor" stroke-width="22" stroke-linecap="round" fill="none"/><line x1="83.5" y1="216.5" x2="55.2" y2="244.8" stroke="currentColor" stroke-width="22" stroke-linecap="round" fill="none"/><line x1="56.0" y1="150.0" x2="16.0" y2="150.0" stroke="currentColor" stroke-width="22" stroke-linecap="round" fill="none"/><line x1="83.5" y1="83.5" x2="55.2" y2="55.2" stroke="currentColor" stroke-width="22" stroke-linecap="round" fill="none"/><line x1="150.0" y1="56.0" x2="150.0" y2="16.0" stroke="currentColor" stroke-width="22" stroke-linecap="round" fill="none"/><line x1="216.5" y1="83.5" x2="244.8" y2="55.2" stroke="currentColor" stroke-width="22" stroke-linecap="round" fill="none"/><path d="M 182.5 338.4 A 53.1 53.1 0 0 1 166.6 248.1 A 74.4 74.4 0 0 1 340.8 213.1 A 58.4 58.4 0 0 1 430.1 303.4 A 58.4 58.4 0 0 1 406.7 338.4 Z" fill="none" stroke="currentColor" stroke-width="20" stroke-linejoin="round"/><path d="M 146 419 h 150 a 28 28 0 1 0 -28 -28" fill="none" stroke="currentColor" stroke-width="22" stroke-linecap="round"/><path d="M 146 463 h 190 a 34 34 0 1 1 -34 34" fill="none" stroke="currentColor" stroke-width="22" stroke-linecap="round"/><path d="M 146 505 h 90" fill="none" stroke="currentColor" stroke-width="22" stroke-linecap="round"/></svg>
