<svg xmlns="http://www.w3.org/2000/svg" viewBox="0 0 512 512"><title>Partly cloudy with sleet</title><circle cx="150" cy="150" r="78" fill="none" stroke="currentColor" stroke-width="22"/><line x1="244.0" y1="150.0" x2="284.0" y2="150.0" stroke="currentColor" stroke-width="22" stroke-linecap="round" fill="none"/><line x1="216.5" y1="216.5" x2="244.8" y2="244.8" stroke="currentColor" stroke-width="22" stroke-linecap="round" fill="none"/><line x1="150.0" y1="244.0" x2="150.0" y2="284.0" stroke="currentColor" stroke-width="22" stroke-linecap="round" fill="none"/><line x1="83.5" y1="216.5" x2="55.2" y2="244.8" stroke="currentColor" stroke-width="22" stroke-linecap="round" fill="none"/><line x1="56.0" y1="150.0" x2="16.0" y2="150.0" stroke="currentColor" stroke-width="22" stroke-linecap="round" fill="none"/><line x1="83.5" y1="83.5" x2="55.2" y2="55.2" stroke="currentColor" stroke-width="22" stroke-linecap="round" fill="none"/><line x1="150.0" y1="56.0" x2="150.0" y2="16.0" stroke="currentColor" stroke-width="22" stroke-linecap="round" fill="none"/><line x1="216.5" y1="83.5" x2="244.8" y2="55.2" stroke="currentColor" stroke-width="22" stroke-linecap="round" fill="none"/><path d="M 182.5 338.4 A 53.1 53.1 0 0 1 166.6 248.1 A 74.4 74.4 0 0 1 340.8 213.1 A 58.4 58.4 0 0 1 430.1 303.4 A 58.4 58.4 0 0 1 406.7 338.4 Z" fill="none" stroke="currentColor" stroke-width="20" stroke-linejoin="round"/><path d="M 280 384.8 C 298 406.4 298 420.8 280 426.2 C 262 420.8 262 406.4 280 384.8 Z"/><g><line x1="308.0" y1="422.0" x2="352.0" y2="422.0" stroke="currentColor" stroke-width="12" stroke-linecap="round"/><line x1="319.0" y1="402.9" x2="341.0" y2="441.1" stroke="currentColor" stroke-width="12" stroke-linecap="round"/><line x1="341.0" y1="402.9" x2="319.0" y2="441.1" stroke="currentColor" stroke-width="12" stroke-linecap="round"/><line x1="352.0" y1="422.0" x2="308.0" y2="422.0" stroke="currentColor" stroke-width="12" stroke-linecap="round"/><line x1="341.0" y1="441.1" x2="319.0" y2="402.9" stroke="currentColor" stroke-width="12" stroke-linecap="round"/><line x1="319.0" y1="441.1" x2="341.0" y2="402.9" stroke="currentColor" stroke-width="12" stroke-linecap="round"/></g><path d="M 380 384.8 C 398 406.4 398 420.8 380 426.2 C 362 420.8 362 406.4 380 384.8 Z"/></svg>
