<svg xmlns="http://www.w3.org/2000/svg" viewBox="0 0 512 512"><title>Partly cloudy with snow (night)</title><path d="M 234 150 a 84 84 0 1 1 -168 0 a 84 84 0 1 1 168 0 Z M 269.28 150 a 84 84 0 1 0 -168 0 a 84 84 0 1 0 168 0 Z" fill="currentColor" fill-rule="evenodd"/><path d="M 182.5 338.4 A 53.1 53.1 0 0 1 166.6 248.1 A 74.4 74.4 0 0 1 340.8 213.1 A 58.4 58.4 0 0 1 430.1 303.4 A 58.4 58.4 0 0 1 406.7 338.4 Z" fill="none" stroke="currentColor" stroke-width="20" stroke-linejoin="round"/><g><line x1="236.0" y1="410.0" x2="284.0" y2="410.0" stroke="currentColor" stroke-width="12" stroke-linecap="round"/><line x1="248.0" y1="389.2" x2="272.0" y2="430.8" stroke="currentColor" stroke-width="12" stroke-linecap="round"/><line x1="272.0" y1="389.2" x2="248.0" y2="430.8" stroke="currentColor" stroke-width="12" stroke-linecap="round"/><line x1="284.0" y1="410.0" x2="236.0" y2="410.0" stroke="currentColor" stroke-width="12" stroke-linecap="round"/><line x1="272.0" y1="430.8" x2="248.0" y2="389.2" stroke="currentColor" stroke-width="12" stroke-linecap="round"/><line x1="248.0" y1="430.8" x2="272.0" y2="389.2" stroke="currentColor" stroke-width="12" stroke-linecap="round"/></g><g><line x1="306.0" y1="432.0" x2="354.0" y2="432.0" stroke="currentColor" stroke-width="12" stroke-linecap="round"/><line x1="318.0" y1="411.2" x2="342.0" y2="452.8" stroke="currentColor" stroke-width="12" stroke-linecap="round"/><line x1="342.0" y1="411.2" x2="318.0" y2="452.8" stroke="currentColor" stroke-width="12" stroke-linecap="round"/><line x1="354.0" y1="432.0" x2="306.0" y2="432.0" stroke="currentColor" stroke-width="12" stroke-linecap="round"/><line x1="342.0" y1="452.8" x2="318.0" y2="411.2" stroke="currentColor" stroke-width="12" stroke-linecap="round"/><line x1="318.0" y1="452.8" x2="342.0" y2="411.2" stroke="currentColor" stroke-width="12" stroke-linecap="round"/></g><g><line x1="376.0" y1="410.0" x2="424.0" y2="410.0" stroke="currentColor" stroke-width="12" stroke-linecap="round"/><line x1="388.0" y1="389.2" x2="412.0" y2="430.8" stroke="currentColor" stroke-width="12" stroke-linecap="round"/><line x1="412.0" y1="389.2" x2="388.0" y2="430.8" stroke="currentColor" stroke-width="12" stroke-linecap="round"/><line x1="424.0" y1="410.0" x2="376.0" y2="410.0" stroke="currentColor" stroke-width="12" stroke-linecap="round"/><line x1="412.0" y1="430.8" x2="388.0" y2="389.2" stroke="currentColor" stroke-width="12" stroke-linecap="round"/><line x1="388.0" y1="430.8" x2="412.0" y2="389.2" stroke="currentColor" stroke-width="12" stroke-linecap="round"/></g></svg>
