<svg xmlns="http://www.w3.org/2000/svg" viewBox="0 0 512 512"><title>Rain turning to snow</title><path d="M 91.0 285.6 A 68.8 68.8 0 0 1 70.4 168.8 A 96.3 96.3 0 0 1 295.9 123.4 A 75.6 75.6 0 0 1 411.4 240.3 A 75.6 75.6 0 0 1 381.1 285.6 Z" fill="none" stroke="currentColor" stroke-width="20" stroke-linejoin="round"/><path d="M 190 359.2 C 212 385.6 212 403.2 190 409.8 C 168 403.2 168 385.6 190 359.2 Z"/><path d="M 240 359.2 C 262 385.6 262 403.2 240 409.8 C 218 403.2 218 385.6 240 359.2 Z"/><g><line x1="271.0" y1="400.0" x2="319.0" y2="400.0" stroke="currentColor" stroke-width="12" stroke-linecap="round"/><line x1="283.0" y1="379.2" x2="307.0" y2="420.8" stroke="currentColor" stroke-width="12" stroke-linecap="round"/><line x1="307.0" y1="379.2" x2="283.0" y2="420.8" stroke="currentColor" stroke-width="12" stroke-linecap="round"/><line x1="319.0" y1="400.0" x2="271.0" y2="400.0" stroke="currentColor" stroke-width="12" stroke-linecap="round"/><line x1="307.0" y1="420.8" x2="283.0" y2="379.2" stroke="currentColor" stroke-width="12" stroke-linecap="round"/><line x1="283.0" y1="420.8" x2="307.0" y2="379.2" stroke="currentColor" stroke-width="12" stroke-linecap="round"/></g><g><line x1="321.0" y1="400.0" x2="369.0" y2="400.0" stroke="currentColor" stroke-width="12" stroke-linecap="round"/><line x1="333.0" y1="379.2" x2="357.0" y2="420.8" stroke="currentColor" stroke-width="12" stroke-linecap="round"/><line x1="357.0" y1="379.2" x2="333.0" y2="420.8" stroke="currentColor" stroke-width="12" stroke-linecap="round"/><line x1="369.0" y1="400.0" x2="321.0" y2="400.0" stroke="currentColor" stroke-width="12" stroke-linecap="round"/><line x1="357.0" y1="420.8" x2="333.0" y2="379.2" stroke="currentColor" stroke-width="12" stroke-linecap="round"/><line x1="333.0" y1="420.8" x2="357.0" y2="379.2" stroke="currentColor" stroke-width="12" stroke-linecap="round"/></g></svg>
