<svg xmlns="http://www.w3.org/2000/svg" viewBox="0 0 512 512"><title>Rain, windy</title><path d="M 91.0 285.6 A 68.8 68.8 0 0 1 70.4 168.8 A 96.3 96.3 0 0 1 295.9 123.4 A 75.6 75.6 0 0 1 411.4 240.3 A 75.6 75.6 0 0 1 381.1 285.6 Z" fill="none" stroke="currentColor" stroke-width="20" stroke-linejoin="round"/><path d="M 171 349.2 C 193 375.6 193 393.2 171 399.8 C 149 393.2 149 375.6 171 349.2 Z"/><path d="M 256 371.2 C 278 397.6 278 415.2 256 421.8 C 234 415.2 234 397.6 256 371.2 Z"/><path d="M 341 349.2 C 363 375.6 363 393.2 341 399.8 C 319 393.2 319 375.6 341 349.2 Z"/><path d="M 146 419 h 150 a 28 28 0 1 0 -28 -28" fill="none" stroke="currentColor" stroke-width="22" stroke-linecap="round"/><path d="M 146 463 h 190 a 34 34 0 1 1 -34 34" fill="none" stroke="currentColor" stroke-width="22" stroke-linecap="round"/><path d="M 146 505 h 90" fill="none" stroke="currentColor" stroke-width="22" stroke-linecap="round"/></svg>
