<svg xmlns="http://www.w3.org/2000/svg" viewBox="0 0 512 512"><title>Rain and snow</title><path d="M 91.0 285.6 A 68.8 68.8 0 0 1 70.4 168.8 A 96.3 96.3 0 0 1 295.9 123.4 A 75.6 75.6 0 0 1 411.4 240.3 A 75.6 75.6 0 0 1 381.1 285.6 Z" fill="none" stroke="currentColor" stroke-width="20" stroke-linejoin="round"/><path d="M 200 359.2 C 222 385.6 222 403.2 200 409.8 C 178 403.2 178 385.6 200 359.2 Z"/><g><line x1="256.0" y1="400.0" x2="304.0" y2="400.0" stroke="currentColor" stroke-width="12" stroke-linecap="round"/><line x1="268.0" y1="379.2" x2="292.0" y2="420.8" stroke="currentColor" stroke-width="12" stroke-linecap="round"/><line x1="292.0" y1="379.2" x2="268.0" y2="420.8" stroke="currentColor" stroke-width="12" stroke-linecap="round"/><line x1="304.0" y1="400.0" x2="256.0" y2="400.0" stroke="currentColor" stroke-width="12" stroke-linecap="round"/><line x1="292.0" y1="420.8" x2="268.0" y2="379.2" stroke="currentColor" stroke-width="12" stroke-linecap="round"/><line x1="268.0" y1="420.8" x2="292.0" y2="379.2" stroke="currentColor" stroke-width="12" stroke-linecap="round"/></g><path d="M 340 359.2 C 362 385.6 362 403.2 340 409.8 C 318 403.2 318 385.6 340 359.2 Z"/></svg>
