<svg xmlns="http://www.w3.org/2000/svg" viewBox="0 0 512 512"><title>Showers, windy (night)</title><path d="M 91.0 285.6 A 68.8 68.8 0 0 1 70.4 168.8 A 96.3 96.3 0 0 1 295.9 123.4 A 75.6 75.6 0 0 1 411.4 240.3 A 75.6 75.6 0 0 1 381.1 285.6 Z" fill="none" stroke="currentColor" stroke-width="20" stroke-linejoin="round"/><path d="M 171 349.2 C 193 375.6 193 393.2 171 399.8 C 149 393.2 149 375.6 171 349.2 Z"/><path d="M 227.66666666666666 371.2 C 249.66666666666666 397.6 249.66666666666666 415.2 227.66666666666666 421.8 C 205.66666666666666 415.2 205.66666666666666 397.6 227.66666666666666 371.2 Z"/><path d="M 284.3333333333333 349.2 C 306.3333333333333 375.6 306.3333333333333 393.2 284.3333333333333 399.8 C 262.3333333333333 393.2 262.3333333333333 375.6 284.3333333333333 349.2 Z"/><path d="M 341 371.2 C 363 397.6 363 415.2 341 421.8 C 319 415.2 319 397.6 341 371.2 Z"/><path d="M 146 419 h 150 a 28 28 0 1 0 -28 -28" fill="none" stroke="currentColor" stroke-width="22" stroke-linecap="round"/><path d="M 146 463 h 190 a 34 34 0 1 1 -34 34" fill="none" stroke="currentColor" stroke-width="22" stroke-linecap="round"/><path d="M 146 505 h 90" fill="none" stroke="currentColor" stroke-width="22" stroke-linecap="round"/></svg>
