<svg xmlns="http://www.w3.org/2000/svg" viewBox="0 0 512 512"><title>Sleet and snow (night)</title><path d="M 91.0 285.6 A 68.8 68.8 0 0 1 70.4 168.8 A 96.3 96.3 0 0 1 295.9 123.4 A 75.6 75.6 0 0 1 411.4 240.3 A 75.6 75.6 0 0 1 381.1 285.6 Z" fill="none" stroke="currentColor" stroke-width="20" stroke-linejoin="round"/><path d="M 206 364.8 C 224 386.4 224 400.8 206 406.2 C 188 400.8 188 386.4 206 364.8 Z"/><g><line x1="234.0" y1="402.0" x2="278.0" y2="402.0" stroke="currentColor" stroke-width="12" stroke-linecap="round"/><line x1="245.0" y1="382.9" x2="267.0" y2="421.1" stroke="currentColor" stroke-width="12" stroke-linecap="round"/><line x1="267.0" y1="382.9" x2="245.0" y2="421.1" stroke="currentColor" stroke-width="12" stroke-linecap="round"/><line x1="278.0" y1="402.0" x2="234.0" y2="402.0" stroke="currentColor" stroke-width="12" stroke-linecap="round"/><line x1="267.0" y1="421.1" x2="245.0" y2="382.9" stroke="currentColor" stroke-width="12" stroke-linecap="round"/><line x1="245.0" y1="421.1" x2="267.0" y2="382.9" stroke="currentColor" stroke-width="12" stroke-linecap="round"/></g><path d="M 306 364.8 C 324 386.4 324 400.8 306 406.2 C 288 400.8 288 386.4 306 364.8 Z"/></svg>
