<svg xmlns="http://www.w3.org/2000/svg" viewBox="0 0 512 512"><title>Snow turning to rain (night)</title><path d="M 91.0 285.6 A 68.8 68.8 0 0 1 70.4 168.8 A 96.3 96.3 0 0 1 295.9 123.4 A 75.6 75.6 0 0 1 411.4 240.3 A 75.6 75.6 0 0 1 381.1 285.6 Z" fill="none" stroke="currentColor" stroke-width="20" stroke-linejoin="round"/><g><line x1="166.0" y1="400.0" x2="214.0" y2="400.0" stroke="currentColor" stroke-width="12" stroke-linecap="round"/><line x1="178.0" y1="379.2" x2="202.0" y2="420.8" stroke="currentColor" stroke-width="12" stroke-linecap="round"/><line x1="202.0" y1="379.2" x2="178.0" y2="420.8" stroke="currentColor" stroke-width="12" stroke-linecap="round"/><line x1="214.0" y1="400.0" x2="166.0" y2="400.0" stroke="currentColor" stroke-width="12" stroke-linecap="round"/><line x1="202.0" y1="420.8" x2="178.0" y2="379.2" stroke="currentColor" stroke-width="12" stroke-linecap="round"/><line x1="178.0" y1="420.8" x2="202.0" y2="379.2" stroke="currentColor" stroke-width="12" stroke-linecap="round"/></g><g><line x1="216.0" y1="400.0" x2="264.0" y2="400.0" stroke="currentColor" stroke-width="12" stroke-linecap="round"/><line x1="228.0" y1="379.2" x2="252.0" y2="420.8" stroke="currentColor" stroke-width="12" stroke-linecap="round"/><line x1="252.0" y1="379.2" x2="228.0" y2="420.8" stroke="currentColor" stroke-width="12" stroke-linecap="round"/><line x1="264.0" y1="400.0" x2="216.0" y2="400.0" stroke="currentColor" stroke-width="12" stroke-linecap="round"/><line x1="252.0" y1="420.8" x2="228.0" y2="379.2" stroke="currentColor" stroke-width="12" stroke-linecap="round"/><line x1="228.0" y1="420.8" x2="252.0" y2="379.2" stroke="currentColor" stroke-width="12" stroke-linecap="round"/></g><path d="M 295 359.2 C 317 385.6 317 403.2 295 409.8 C 273 403.2 273 385.6 295 359.2 Z"/><path d="M 345 359.2 C 367 385.6 367 403.2 345 409.8 C 323 403.2 323 385.6 345 359.2 Z"/></svg>
