<svg xmlns="http://www.w3.org/2000/svg" viewBox="0 0 512 512"><title>Thunderstorms, windy (night)</title><path d="M 91.0 285.6 A 68.8 68.8 0 0 1 70.4 168.8 A 96.3 96.3 0 0 1 295.9 123.4 A 75.6 75.6 0 0 1 411.4 240.3 A 75.6 75.6 0 0 1 381.1 285.6 Z" fill="none" stroke="currentColor" stroke-width="20" stroke-linejoin="round"/><path d="M 242 302 L 202 398 L 249  398 L 229 466 L 310 356 L 263  356 L 290 302 Z"/><path d="M 180 404.8 C 198 426.4 198 440.8 180 446.2 C 162 440.8 162 426.4 180 404.8 Z"/><path d="M 332 404.8 C 350 426.4 350 440.8 332 446.2 C 314 440.8 314 426.4 332 404.8 Z"/><path d="M 146 419 h 150 a 28 28 0 1 0 -28 -28" fill="none" stroke="currentColor" stroke-width="22" stroke-linecap="round"/><path d="M 146 463 h 190 a 34 34 0 1 1 -34 34" fill="none" stroke="currentColor" stroke-width="22" stroke-linecap="round"/><path d="M 146 505 h 90" fill="none" stroke="currentColor" stroke-width="22" stroke-linecap="round"/></svg>
